<svg xmlns="http://www.w3.org/2000/svg" version="1.1" xmlns:xlink="http://www.w3.org/1999/xlink" xmlns:svgjs="http://svgjs.dev/svgjs" width="1440" height="560" preserveAspectRatio="none" viewBox="0 0 1440 560"><g mask="url(&quot;#SvgjsMask1101&quot;)" fill="none"><rect width="1440" height="560" x="0" y="0" fill="rgba(0, 0, 0, 1)"></rect><path d="M1597.91 441.76C1478.85 441.57 1362.37 371.76 1126.84 371.76 891.3 371.76 917.88 454.02 655.76 441.76 393.64 429.5 355.25-40.79 184.69-90.91" stroke="rgba(51,121,194,0.58)" stroke-width="2"></path><path d="M1570.57 365.27C1461.16 353.22 1416.78 127.34 1209.53 113.27 1002.28 99.2 947.07-42.38 848.49-45.86" stroke="rgba(51,121,194,0.58)" stroke-width="2"></path><path d="M1528.74 401.32C1415.83 401.11 1305.66 331.32 1082.57 331.32 859.49 331.32 879.61 409.65 636.41 401.32 393.2 392.99 345.58-19.18 190.24-57.55" stroke="rgba(51,121,194,0.58)" stroke-width="2"></path><path d="M1519.75 310.09C1341.17 305.66 1196.76 55.01 853.26 52.49 509.77 49.97 354.48-23.19 186.78-23.31" stroke="rgba(51,121,194,0.58)" stroke-width="2"></path><path d="M1681.92 157.19C1545.7 159.73 1427.73 336.88 1167.26 336.39 906.79 335.9 806.15 10.83 652.6-4.12" stroke="rgba(51,121,194,0.58)" stroke-width="2"></path></g><defs><mask id="SvgjsMask1101"><rect width="1440" height="560" fill="#ffffff"></rect></mask></defs></svg>